<mxfile host="Electron" modified="2024-10-04T03:50:49.192Z" agent="Mozilla/5.0 (Windows NT 10.0; Win64; x64) AppleWebKit/537.36 (KHTML, like Gecko) draw.io/23.0.2 Chrome/120.0.6099.109 Electron/28.1.0 Safari/537.36" etag="d6q9CtbPB645INlg9HpL" version="23.0.2" type="device">
  <diagram name="Page-1" id="OQhYBh8kKPS81W1qhcG0">
    <mxGraphModel dx="1436" dy="1006" grid="0" gridSize="10" guides="1" tooltips="1" connect="1" arrows="1" fold="1" page="0" pageScale="1" pageWidth="827" pageHeight="1169" math="0" shadow="0">
      <root>
        <mxCell id="0" />
        <mxCell id="1" parent="0" />
        <mxCell id="fU9d4ZKCMpDvH-MXPVb--1" value="" style="whiteSpace=wrap;html=1;aspect=fixed;fillColor=default;" parent="1" vertex="1">
          <mxGeometry x="-212" y="-125" width="1154" height="1154" as="geometry" />
        </mxCell>
        <mxCell id="fU9d4ZKCMpDvH-MXPVb--2" value="" style="swimlane;startSize=0;" parent="1" vertex="1">
          <mxGeometry x="5" y="59" width="720" height="786" as="geometry" />
        </mxCell>
        <mxCell id="fU9d4ZKCMpDvH-MXPVb--3" value="&lt;font style=&quot;font-size: 50px;&quot;&gt;&lt;b&gt;System&lt;/b&gt;&lt;/font&gt;" style="text;html=1;align=center;verticalAlign=middle;resizable=0;points=[];autosize=1;strokeColor=none;fillColor=none;" parent="fU9d4ZKCMpDvH-MXPVb--2" vertex="1">
          <mxGeometry x="262" y="-9" width="196" height="72" as="geometry" />
        </mxCell>
        <mxCell id="fU9d4ZKCMpDvH-MXPVb--16" value="Display Created &lt;br&gt;Quizzes in Tabular-form on Dashborad" style="ellipse;whiteSpace=wrap;html=1;direction=west;" parent="fU9d4ZKCMpDvH-MXPVb--2" vertex="1">
          <mxGeometry x="543.82" y="157" width="144" height="74" as="geometry" />
        </mxCell>
        <mxCell id="0t982UTLcq1grT9yLSO3-1" value="View Title, Code(ID) &lt;br&gt;&amp;amp; Date of Creation &lt;br&gt;of Created Quizzes" style="ellipse;whiteSpace=wrap;html=1;direction=west;" parent="fU9d4ZKCMpDvH-MXPVb--2" vertex="1">
          <mxGeometry x="22" y="233" width="138" height="71" as="geometry" />
        </mxCell>
        <mxCell id="0t982UTLcq1grT9yLSO3-2" value="Details" style="ellipse;whiteSpace=wrap;html=1;direction=west;" parent="fU9d4ZKCMpDvH-MXPVb--2" vertex="1">
          <mxGeometry x="83" y="343" width="64.5" height="28" as="geometry" />
        </mxCell>
        <mxCell id="0t982UTLcq1grT9yLSO3-3" value="Edit" style="ellipse;whiteSpace=wrap;html=1;direction=west;" parent="fU9d4ZKCMpDvH-MXPVb--2" vertex="1">
          <mxGeometry x="89.75" y="168" width="51" height="25" as="geometry" />
        </mxCell>
        <mxCell id="0t982UTLcq1grT9yLSO3-4" value="Edit Questions" style="ellipse;whiteSpace=wrap;html=1;direction=west;" parent="fU9d4ZKCMpDvH-MXPVb--2" vertex="1">
          <mxGeometry x="246" y="123" width="84.5" height="33" as="geometry" />
        </mxCell>
        <mxCell id="0t982UTLcq1grT9yLSO3-5" value="Delete Questions" style="ellipse;whiteSpace=wrap;html=1;direction=west;" parent="fU9d4ZKCMpDvH-MXPVb--2" vertex="1">
          <mxGeometry x="246" y="160" width="84.5" height="33" as="geometry" />
        </mxCell>
        <mxCell id="0t982UTLcq1grT9yLSO3-6" value="Add Questions" style="ellipse;whiteSpace=wrap;html=1;direction=west;" parent="fU9d4ZKCMpDvH-MXPVb--2" vertex="1">
          <mxGeometry x="246" y="198" width="84.5" height="33" as="geometry" />
        </mxCell>
        <mxCell id="0t982UTLcq1grT9yLSO3-7" value="Home" style="ellipse;whiteSpace=wrap;html=1;direction=west;" parent="fU9d4ZKCMpDvH-MXPVb--2" vertex="1">
          <mxGeometry x="262" y="240" width="45" height="22" as="geometry" />
        </mxCell>
        <mxCell id="0t982UTLcq1grT9yLSO3-8" value="Delete Quiz" style="ellipse;whiteSpace=wrap;html=1;direction=west;" parent="fU9d4ZKCMpDvH-MXPVb--2" vertex="1">
          <mxGeometry x="75.25" y="552" width="80" height="37" as="geometry" />
        </mxCell>
        <mxCell id="0t982UTLcq1grT9yLSO3-9" value="Save" style="ellipse;whiteSpace=wrap;html=1;direction=west;" parent="fU9d4ZKCMpDvH-MXPVb--2" vertex="1">
          <mxGeometry x="418" y="165.5" width="45" height="22" as="geometry" />
        </mxCell>
        <mxCell id="0t982UTLcq1grT9yLSO3-12" value="&lt;p style=&quot;line-height: 100%;&quot;&gt;&lt;span style=&quot;border-color: var(--border-color); font-size: 8px;&quot;&gt;&lt;font style=&quot;font-size: 12px; border-color: var(--border-color);&quot;&gt;View Quiz Details&lt;/font&gt;&lt;/span&gt;&lt;/p&gt;" style="ellipse;whiteSpace=wrap;html=1;" parent="fU9d4ZKCMpDvH-MXPVb--2" vertex="1">
          <mxGeometry x="247" y="299" width="75" height="33" as="geometry" />
        </mxCell>
        <mxCell id="0t982UTLcq1grT9yLSO3-13" value="&lt;p style=&quot;line-height: 100%;&quot;&gt;View Student Records&lt;/p&gt;" style="ellipse;whiteSpace=wrap;html=1;" parent="fU9d4ZKCMpDvH-MXPVb--2" vertex="1">
          <mxGeometry x="240" y="348" width="90.5" height="42" as="geometry" />
        </mxCell>
        <mxCell id="0t982UTLcq1grT9yLSO3-58" value="&lt;p style=&quot;line-height: 100%;&quot;&gt;Export Record&lt;/p&gt;" style="ellipse;whiteSpace=wrap;html=1;" parent="fU9d4ZKCMpDvH-MXPVb--2" vertex="1">
          <mxGeometry x="70" y="417" width="90.5" height="42" as="geometry" />
        </mxCell>
        <mxCell id="0t982UTLcq1grT9yLSO3-59" value="CSV File" style="ellipse;whiteSpace=wrap;html=1;direction=west;" parent="fU9d4ZKCMpDvH-MXPVb--2" vertex="1">
          <mxGeometry x="168" y="493" width="58.82" height="23" as="geometry" />
        </mxCell>
        <mxCell id="0t982UTLcq1grT9yLSO3-60" value="PDF File" style="ellipse;whiteSpace=wrap;html=1;direction=west;" parent="fU9d4ZKCMpDvH-MXPVb--2" vertex="1">
          <mxGeometry x="85.84000000000003" y="497" width="58.82" height="23" as="geometry" />
        </mxCell>
        <mxCell id="0t982UTLcq1grT9yLSO3-61" value="View Title, Score&lt;br&gt;&amp;amp; Submittion Date&lt;br&gt;of Given Quizzes" style="ellipse;whiteSpace=wrap;html=1;direction=west;" parent="fU9d4ZKCMpDvH-MXPVb--2" vertex="1">
          <mxGeometry x="66" y="662" width="138" height="71" as="geometry" />
        </mxCell>
        <mxCell id="0t982UTLcq1grT9yLSO3-62" value="Displays Given Quizzes&lt;br&gt;in Tabular-form on Dashborad" style="ellipse;whiteSpace=wrap;html=1;direction=west;" parent="fU9d4ZKCMpDvH-MXPVb--2" vertex="1">
          <mxGeometry x="529.82" y="432" width="172" height="76" as="geometry" />
        </mxCell>
        <mxCell id="0t982UTLcq1grT9yLSO3-90" value="Save Changes" style="ellipse;whiteSpace=wrap;html=1;direction=west;" parent="fU9d4ZKCMpDvH-MXPVb--2" vertex="1">
          <mxGeometry x="570.32" y="280" width="91" height="35" as="geometry" />
        </mxCell>
        <mxCell id="0t982UTLcq1grT9yLSO3-94" value="&amp;lt;&amp;lt;extend&amp;gt;&amp;gt;" style="endArrow=open;endSize=5;dashed=1;html=1;rounded=0;entryX=0;entryY=1;entryDx=0;entryDy=0;exitX=1;exitY=0.5;exitDx=0;exitDy=0;" parent="fU9d4ZKCMpDvH-MXPVb--2" source="0t982UTLcq1grT9yLSO3-4" target="0t982UTLcq1grT9yLSO3-3" edge="1">
          <mxGeometry width="160" relative="1" as="geometry">
            <mxPoint x="228" y="187" as="sourcePoint" />
            <mxPoint x="168" y="224" as="targetPoint" />
          </mxGeometry>
        </mxCell>
        <mxCell id="0t982UTLcq1grT9yLSO3-95" value="&amp;lt;&amp;lt;include&amp;gt;&amp;gt;" style="endArrow=open;endSize=5;dashed=1;html=1;rounded=0;entryX=1;entryY=0;entryDx=0;entryDy=0;exitX=0;exitY=0.5;exitDx=0;exitDy=0;" parent="fU9d4ZKCMpDvH-MXPVb--2" source="0t982UTLcq1grT9yLSO3-6" target="0t982UTLcq1grT9yLSO3-9" edge="1">
          <mxGeometry width="160" relative="1" as="geometry">
            <mxPoint x="279" y="187" as="sourcePoint" />
            <mxPoint x="326" y="145" as="targetPoint" />
          </mxGeometry>
        </mxCell>
        <mxCell id="0t982UTLcq1grT9yLSO3-97" value="&amp;lt;&amp;lt;include&amp;gt;&amp;gt;" style="endArrow=open;endSize=5;dashed=1;html=1;rounded=0;entryX=1;entryY=0.5;entryDx=0;entryDy=0;exitX=0;exitY=0.5;exitDx=0;exitDy=0;" parent="fU9d4ZKCMpDvH-MXPVb--2" source="0t982UTLcq1grT9yLSO3-5" target="0t982UTLcq1grT9yLSO3-9" edge="1">
          <mxGeometry width="160" relative="1" as="geometry">
            <mxPoint x="411" y="220" as="sourcePoint" />
            <mxPoint x="467" y="190" as="targetPoint" />
          </mxGeometry>
        </mxCell>
        <mxCell id="0t982UTLcq1grT9yLSO3-98" value="&amp;lt;&amp;lt;include&amp;gt;&amp;gt;" style="endArrow=open;endSize=5;dashed=1;html=1;rounded=0;entryX=1;entryY=1;entryDx=0;entryDy=0;exitX=0;exitY=0.5;exitDx=0;exitDy=0;" parent="fU9d4ZKCMpDvH-MXPVb--2" source="0t982UTLcq1grT9yLSO3-4" target="0t982UTLcq1grT9yLSO3-9" edge="1">
          <mxGeometry width="160" relative="1" as="geometry">
            <mxPoint x="411" y="183" as="sourcePoint" />
            <mxPoint x="499" y="192" as="targetPoint" />
          </mxGeometry>
        </mxCell>
        <mxCell id="0t982UTLcq1grT9yLSO3-99" value="&amp;lt;&amp;lt;extend&amp;gt;&amp;gt;" style="endArrow=open;endSize=5;dashed=1;html=1;rounded=0;entryX=0;entryY=0.5;entryDx=0;entryDy=0;exitX=1;exitY=0.5;exitDx=0;exitDy=0;" parent="fU9d4ZKCMpDvH-MXPVb--2" source="0t982UTLcq1grT9yLSO3-5" target="0t982UTLcq1grT9yLSO3-3" edge="1">
          <mxGeometry width="160" relative="1" as="geometry">
            <mxPoint x="326" y="145" as="sourcePoint" />
            <mxPoint x="279" y="187" as="targetPoint" />
          </mxGeometry>
        </mxCell>
        <mxCell id="0t982UTLcq1grT9yLSO3-135" value="&amp;lt;&amp;lt;extend&amp;gt;&amp;gt;" style="endArrow=open;endSize=5;dashed=1;html=1;rounded=0;entryX=0;entryY=0;entryDx=0;entryDy=0;exitX=1;exitY=0.5;exitDx=0;exitDy=0;" parent="fU9d4ZKCMpDvH-MXPVb--2" source="0t982UTLcq1grT9yLSO3-6" target="0t982UTLcq1grT9yLSO3-3" edge="1">
          <mxGeometry width="160" relative="1" as="geometry">
            <mxPoint x="364" y="183" as="sourcePoint" />
            <mxPoint x="279" y="187" as="targetPoint" />
          </mxGeometry>
        </mxCell>
        <mxCell id="0t982UTLcq1grT9yLSO3-136" value="&amp;lt;&amp;lt;extend&amp;gt;&amp;gt;" style="endArrow=open;endSize=5;dashed=1;html=1;rounded=0;entryX=0.5;entryY=0;entryDx=0;entryDy=0;exitX=1;exitY=0.5;exitDx=0;exitDy=0;" parent="fU9d4ZKCMpDvH-MXPVb--2" source="0t982UTLcq1grT9yLSO3-7" target="0t982UTLcq1grT9yLSO3-3" edge="1">
          <mxGeometry width="160" relative="1" as="geometry">
            <mxPoint x="326" y="220" as="sourcePoint" />
            <mxPoint x="279" y="187" as="targetPoint" />
          </mxGeometry>
        </mxCell>
        <mxCell id="0t982UTLcq1grT9yLSO3-137" value="&amp;lt;&amp;lt;include&amp;gt;&amp;gt;" style="endArrow=open;endSize=5;dashed=1;html=1;rounded=0;entryX=0;entryY=0.5;entryDx=0;entryDy=0;exitX=0;exitY=0.5;exitDx=0;exitDy=0;" parent="fU9d4ZKCMpDvH-MXPVb--2" source="0t982UTLcq1grT9yLSO3-2" target="0t982UTLcq1grT9yLSO3-12" edge="1">
          <mxGeometry width="160" relative="1" as="geometry">
            <mxPoint x="219" y="277" as="sourcePoint" />
            <mxPoint x="319" y="282" as="targetPoint" />
          </mxGeometry>
        </mxCell>
        <mxCell id="0t982UTLcq1grT9yLSO3-176" value="&amp;lt;&amp;lt;include&amp;gt;&amp;gt;" style="endArrow=open;endSize=5;dashed=1;html=1;rounded=0;entryX=0;entryY=0.5;entryDx=0;entryDy=0;exitX=0;exitY=0.5;exitDx=0;exitDy=0;" parent="fU9d4ZKCMpDvH-MXPVb--2" source="0t982UTLcq1grT9yLSO3-2" target="0t982UTLcq1grT9yLSO3-13" edge="1">
          <mxGeometry width="160" relative="1" as="geometry">
            <mxPoint x="286" y="332" as="sourcePoint" />
            <mxPoint x="314" y="294" as="targetPoint" />
          </mxGeometry>
        </mxCell>
        <mxCell id="0t982UTLcq1grT9yLSO3-177" value="&amp;lt;&amp;lt;extend&amp;gt;&amp;gt;" style="endArrow=open;endSize=5;dashed=1;html=1;rounded=0;entryX=0.5;entryY=0;entryDx=0;entryDy=0;exitX=0.5;exitY=0;exitDx=0;exitDy=0;" parent="fU9d4ZKCMpDvH-MXPVb--2" source="0t982UTLcq1grT9yLSO3-58" target="0t982UTLcq1grT9yLSO3-2" edge="1">
          <mxGeometry width="160" relative="1" as="geometry">
            <mxPoint x="322" y="421" as="sourcePoint" />
            <mxPoint x="237" y="425" as="targetPoint" />
          </mxGeometry>
        </mxCell>
        <mxCell id="0t982UTLcq1grT9yLSO3-266" value="&amp;lt;&amp;lt;extend&amp;gt;&amp;gt;" style="endArrow=open;endSize=5;dashed=1;html=1;rounded=0;entryX=1;entryY=1;entryDx=0;entryDy=0;exitX=0.5;exitY=1;exitDx=0;exitDy=0;" parent="fU9d4ZKCMpDvH-MXPVb--2" source="0t982UTLcq1grT9yLSO3-59" target="0t982UTLcq1grT9yLSO3-58" edge="1">
          <mxGeometry width="160" relative="1" as="geometry">
            <mxPoint x="313" y="452" as="sourcePoint" />
            <mxPoint x="254" y="346" as="targetPoint" />
          </mxGeometry>
        </mxCell>
        <mxCell id="0t982UTLcq1grT9yLSO3-267" value="&amp;lt;&amp;lt;extend&amp;gt;&amp;gt;" style="endArrow=open;endSize=5;dashed=1;html=1;rounded=0;entryX=0.5;entryY=1;entryDx=0;entryDy=0;exitX=0.5;exitY=1;exitDx=0;exitDy=0;" parent="fU9d4ZKCMpDvH-MXPVb--2" source="0t982UTLcq1grT9yLSO3-60" target="0t982UTLcq1grT9yLSO3-58" edge="1">
          <mxGeometry width="160" relative="1" as="geometry">
            <mxPoint x="444" y="452" as="sourcePoint" />
            <mxPoint x="390" y="467" as="targetPoint" />
          </mxGeometry>
        </mxCell>
        <mxCell id="0t982UTLcq1grT9yLSO3-269" value="Removes Quiz" style="ellipse;whiteSpace=wrap;html=1;direction=west;" parent="fU9d4ZKCMpDvH-MXPVb--2" vertex="1">
          <mxGeometry x="568.82" y="364" width="94" height="39" as="geometry" />
        </mxCell>
        <mxCell id="tYan4N_U81REQdQZ8qZB-2" value="&amp;lt;&amp;lt;extend&amp;gt;&amp;gt;" style="endArrow=open;endSize=5;dashed=1;html=1;rounded=0;entryX=0;entryY=0;entryDx=0;entryDy=0;exitX=0;exitY=0;exitDx=0;exitDy=0;" parent="fU9d4ZKCMpDvH-MXPVb--2" source="tYan4N_U81REQdQZ8qZB-3" target="0t982UTLcq1grT9yLSO3-2" edge="1">
          <mxGeometry width="160" relative="1" as="geometry">
            <mxPoint x="125" y="381" as="sourcePoint" />
            <mxPoint x="128" y="429" as="targetPoint" />
          </mxGeometry>
        </mxCell>
        <mxCell id="tYan4N_U81REQdQZ8qZB-3" value="&lt;p style=&quot;line-height: 100%;&quot;&gt;Answers Records&lt;/p&gt;" style="ellipse;whiteSpace=wrap;html=1;" parent="fU9d4ZKCMpDvH-MXPVb--2" vertex="1">
          <mxGeometry x="243" y="406" width="75" height="32" as="geometry" />
        </mxCell>
        <mxCell id="fU9d4ZKCMpDvH-MXPVb--43" value="Teacher" style="shape=umlActor;verticalLabelPosition=bottom;verticalAlign=top;html=1;outlineConnect=0;direction=east;" parent="1" vertex="1">
          <mxGeometry x="-146" y="259" width="30" height="60" as="geometry" />
        </mxCell>
        <mxCell id="fU9d4ZKCMpDvH-MXPVb--53" value="Admin" style="shape=umlActor;verticalLabelPosition=bottom;verticalAlign=top;html=1;outlineConnect=0;" parent="1" vertex="1">
          <mxGeometry x="833" y="329" width="30" height="60" as="geometry" />
        </mxCell>
        <mxCell id="fU9d4ZKCMpDvH-MXPVb--60" value="Student" style="shape=umlActor;verticalLabelPosition=bottom;verticalAlign=top;html=1;outlineConnect=0;" parent="1" vertex="1">
          <mxGeometry x="-146" y="726.5" width="30" height="60" as="geometry" />
        </mxCell>
        <mxCell id="0t982UTLcq1grT9yLSO3-63" value="" style="endArrow=none;html=1;rounded=0;entryX=1;entryY=0.5;entryDx=0;entryDy=0;exitX=0.5;exitY=0.5;exitDx=0;exitDy=0;exitPerimeter=0;" parent="1" source="fU9d4ZKCMpDvH-MXPVb--43" target="0t982UTLcq1grT9yLSO3-1" edge="1">
          <mxGeometry width="50" height="50" relative="1" as="geometry">
            <mxPoint x="362" y="293" as="sourcePoint" />
            <mxPoint x="412" y="243" as="targetPoint" />
          </mxGeometry>
        </mxCell>
        <mxCell id="0t982UTLcq1grT9yLSO3-64" value="" style="endArrow=none;html=1;rounded=0;entryX=1;entryY=0.5;entryDx=0;entryDy=0;exitX=0.5;exitY=0.5;exitDx=0;exitDy=0;exitPerimeter=0;" parent="1" source="fU9d4ZKCMpDvH-MXPVb--60" target="0t982UTLcq1grT9yLSO3-61" edge="1">
          <mxGeometry width="50" height="50" relative="1" as="geometry">
            <mxPoint x="-87" y="398" as="sourcePoint" />
            <mxPoint x="35" y="283" as="targetPoint" />
          </mxGeometry>
        </mxCell>
        <mxCell id="0t982UTLcq1grT9yLSO3-273" value="" style="endArrow=none;html=1;rounded=0;entryX=0;entryY=0.5;entryDx=0;entryDy=0;exitX=0.5;exitY=0.5;exitDx=0;exitDy=0;exitPerimeter=0;" parent="1" source="fU9d4ZKCMpDvH-MXPVb--53" target="fU9d4ZKCMpDvH-MXPVb--16" edge="1">
          <mxGeometry width="50" height="50" relative="1" as="geometry">
            <mxPoint x="-121" y="338" as="sourcePoint" />
            <mxPoint x="37" y="338" as="targetPoint" />
          </mxGeometry>
        </mxCell>
        <mxCell id="0t982UTLcq1grT9yLSO3-274" value="" style="endArrow=none;html=1;rounded=0;entryX=0;entryY=0.5;entryDx=0;entryDy=0;exitX=0.5;exitY=0.5;exitDx=0;exitDy=0;exitPerimeter=0;" parent="1" source="fU9d4ZKCMpDvH-MXPVb--53" target="0t982UTLcq1grT9yLSO3-90" edge="1">
          <mxGeometry width="50" height="50" relative="1" as="geometry">
            <mxPoint x="831" y="430" as="sourcePoint" />
            <mxPoint x="674" y="249" as="targetPoint" />
          </mxGeometry>
        </mxCell>
        <mxCell id="0t982UTLcq1grT9yLSO3-275" value="" style="endArrow=none;html=1;rounded=0;entryX=0;entryY=0.5;entryDx=0;entryDy=0;exitX=0.5;exitY=0.5;exitDx=0;exitDy=0;exitPerimeter=0;" parent="1" source="fU9d4ZKCMpDvH-MXPVb--53" target="0t982UTLcq1grT9yLSO3-269" edge="1">
          <mxGeometry width="50" height="50" relative="1" as="geometry">
            <mxPoint x="841" y="513" as="sourcePoint" />
            <mxPoint x="684" y="332" as="targetPoint" />
          </mxGeometry>
        </mxCell>
        <mxCell id="0t982UTLcq1grT9yLSO3-276" value="" style="endArrow=none;html=1;rounded=0;entryX=0;entryY=0.5;entryDx=0;entryDy=0;exitX=0.5;exitY=0.5;exitDx=0;exitDy=0;exitPerimeter=0;" parent="1" source="fU9d4ZKCMpDvH-MXPVb--53" target="0t982UTLcq1grT9yLSO3-62" edge="1">
          <mxGeometry width="50" height="50" relative="1" as="geometry">
            <mxPoint x="937" y="434" as="sourcePoint" />
            <mxPoint x="680" y="608" as="targetPoint" />
          </mxGeometry>
        </mxCell>
        <mxCell id="HlvEN05U0p-TNJ8z5FIz-1" value="" style="endArrow=none;html=1;rounded=0;entryX=1;entryY=0.5;entryDx=0;entryDy=0;exitX=0.5;exitY=0.5;exitDx=0;exitDy=0;exitPerimeter=0;" parent="1" source="fU9d4ZKCMpDvH-MXPVb--43" target="0t982UTLcq1grT9yLSO3-3" edge="1">
          <mxGeometry width="50" height="50" relative="1" as="geometry">
            <mxPoint x="-121" y="299" as="sourcePoint" />
            <mxPoint x="37" y="338" as="targetPoint" />
          </mxGeometry>
        </mxCell>
        <mxCell id="HlvEN05U0p-TNJ8z5FIz-2" value="" style="endArrow=none;html=1;rounded=0;entryX=1;entryY=0.5;entryDx=0;entryDy=0;exitX=0.5;exitY=0.5;exitDx=0;exitDy=0;exitPerimeter=0;" parent="1" source="fU9d4ZKCMpDvH-MXPVb--43" target="0t982UTLcq1grT9yLSO3-8" edge="1">
          <mxGeometry width="50" height="50" relative="1" as="geometry">
            <mxPoint x="-121" y="299" as="sourcePoint" />
            <mxPoint x="105" y="250" as="targetPoint" />
          </mxGeometry>
        </mxCell>
        <mxCell id="HlvEN05U0p-TNJ8z5FIz-3" value="" style="endArrow=none;html=1;rounded=0;entryX=1;entryY=0.5;entryDx=0;entryDy=0;exitX=0.5;exitY=0.5;exitDx=0;exitDy=0;exitPerimeter=0;" parent="1" source="fU9d4ZKCMpDvH-MXPVb--43" target="0t982UTLcq1grT9yLSO3-2" edge="1">
          <mxGeometry width="50" height="50" relative="1" as="geometry">
            <mxPoint x="-119" y="295" as="sourcePoint" />
            <mxPoint x="146" y="603" as="targetPoint" />
          </mxGeometry>
        </mxCell>
      </root>
    </mxGraphModel>
  </diagram>
</mxfile>
